<?xml version="1.0" encoding="UTF-8"?>
<svg width="285px" height="42px" viewBox="0 0 285 42" version="1.1" xmlns="http://www.w3.org/2000/svg" xmlns:xlink="http://www.w3.org/1999/xlink">
    <title>logo-stackbit-light</title>
    <defs>
        <path d="M23.1140291,0.642408774 L2.47124422,12.5315286 C0.816316052,13.4751284 -0.143378705,15.3163568 0.017479223,17.23962 L0.017479223,17.23962 L0.017479223,25.1656999 C-0.12273592,27.113534 0.874739027,28.9634811 2.56472099,29.8896435 L2.56472099,29.8896435 L23.207506,41.3820631 C24.6727542,42.205979 26.4515391,42.205979 27.9163978,41.3820631 L27.9163978,41.3820631 L48.1696963,29.8896435 C49.8339721,28.9448549 50.8037934,27.0988709 50.6507252,25.1656999 L50.6507252,25.1656999 L50.6507252,17.23962 C50.7948353,15.3250755 49.8386461,13.498114 48.1969605,12.5513438 L48.1969605,12.5513438 L27.9436619,0.662223973 C27.1915634,0.220741323 26.3514411,0 25.5117082,0 L25.5117082,0 C24.6848282,0 23.8579484,0.214004156 23.1140291,0.642408774 L23.1140291,0.642408774 Z M24.7498725,30.1194999 L4.10708757,18.23038 C3.85080544,18.0861253 3.63970375,17.8713285 3.49832015,17.6105606 L3.49832015,17.6105606 C3.0815696,16.844505 3.35421015,15.8802973 4.10708757,15.4562521 L4.10708757,15.4562521 L24.7498725,3.56713225 C25.2320568,3.2841712 25.8256343,3.2841712 26.3078185,3.56713225 L26.3078185,3.56713225 L46.561117,15.4839933 C47.3062047,15.9219092 47.561708,16.8912688 47.1317149,17.6497947 L47.1317149,17.6497947 C46.7017217,18.4083205 45.7486482,18.6682959 45.003171,18.23038 L45.003171,18.23038 L25.5210559,6.78115765 L8.04869103,16.843316 L26.2844494,27.3453719 C27.0373268,27.7765506 27.304125,28.7470991 26.8803637,29.5127584 L26.8803637,29.5127584 C26.5929227,30.0327092 26.062442,30.3247853 25.5159925,30.3247853 L25.5159925,30.3247853 C25.256205,30.3247853 24.9925226,30.2582063 24.7498725,30.1194999 L24.7498725,30.1194999 Z M24.7810315,38.4418836 L4.13824648,26.9490679 C4.07904454,26.9209304 4.02101105,26.8888297 3.96609345,26.8531623 L3.96609345,26.8531623 C3.23931162,26.3843347 3.02353609,25.4046712 3.48429864,24.665168 L3.48429864,24.665168 C3.94428221,23.926061 4.90748235,23.7061123 5.63387469,24.1749399 L5.63387469,24.1749399 L25.5210559,35.2437105 L45.0226453,24.1749399 C45.7755228,23.7481205 46.7258699,24.0231556 47.145347,24.7892112 L47.145347,24.7892112 C47.564824,25.555663 47.29452,26.5222485 46.5416427,26.9490679 L46.5416427,26.9490679 L26.2883443,38.4418836 C26.0538734,38.5738529 25.7940859,38.6396394 25.5346878,38.6396394 L25.5346878,38.6396394 C25.2749003,38.6396394 25.0155023,38.5738529 24.7810315,38.4418836 L24.7810315,38.4418836 Z" id="path-1"></path>
    </defs>
    <g id="Page-1" stroke="none" stroke-width="1" fill="none" fill-rule="evenodd">
        <g id="logo-stackbit-light">
            <g id="Stackbit" transform="translate(58.943305, 2.074638)" fill="#FFFFFF" fill-rule="nonzero">
                <path d="M12.2798742,21.9236719 C10.3714069,21.4712786 8.56003055,20.6834687 6.93143809,19.5967187 C4.14619884,17.7125157 2.45850764,14.599849 2.40616303,11.2532292 C2.20227238,8.49526565 3.13096689,5.77294011 4.98117962,3.70635416 C7.13870582,1.47289844 10.0898437,0.165192708 13.2043474,0.0628906242 C18.3501592,0.0628906242 21.2248907,2.01669271 23.7999074,3.76085938 L24.9607755,4.55328125 L21.2755468,10.8423437 L20.0091453,10.0038021 C17.7380651,8.47346353 16.2732605,7.48817705 13.1959047,7.48817705 C12.7400001,7.48817705 10.9754806,7.85713539 10.0678927,8.86338539 C9.7639563,9.18203122 9.41358521,9.76062501 9.46424128,10.9597396 C9.51489734,12.8632292 10.7770776,13.9197917 14.0064017,14.762526 C14.4285355,14.8673437 14.7113652,14.9721615 15.0153016,15.0811719 C18.3923726,16.2970573 21.0180452,17.9322136 22.8374421,19.995026 C24.6116709,21.9861432 25.6011526,24.5478881 25.6235257,27.2069036 C25.5703368,29.9065886 24.5715681,32.5039714 22.7994501,34.5521094 C20.7943142,36.9704636 17.8022294,38.3662162 14.6480452,38.3548958 C12.5445521,38.3829869 10.4507682,38.0798541 8.44267732,37.4576563 C5.17873827,36.3654558 2.26517033,34.4326172 0,31.856198 L5.14581184,26.7830208 C7.50005242,29.5493697 11.0033414,31.0889323 14.6480452,30.9589583 C17.5734328,30.9589583 18.5316767,28.1582291 18.5316767,27.2069036 C18.5316767,25.1985964 16.3619087,23.3491927 12.67668,22.0284896 L12.5247118,21.9739844 L12.2798742,21.9236719 Z" id="Fill-2"></path>
                <polygon id="Fill-4" points="56.0635144 0.582828386 56.0635144 7.97876591 46.27423 7.97876591 46.27423 37.6254065 39.207709 37.6254065 39.207709 7.97876591 29.3719901 7.97876591 29.3719901 0.582828386"></polygon>
                <path d="M77.1027929,23.3702401 L73.4175642,15.1106048 L69.4326205,23.3702401 L77.1027929,23.3702401 Z M80.4334292,30.7494068 L65.798048,30.7494068 L62.4674118,37.6254485 L54.5481805,37.6254485 L72.5606326,0.582870316 L74.6290885,0.582870316 L91.3329256,37.6254485 L83.5107854,37.6254485 L80.4334292,30.7494068 Z" id="Fill-6"></path>
                <path d="M117.576946,9.5635677 C110.717271,4.92223958 100.37077,9.24492186 100.37077,19.177448 C100.37077,29.58375 111.320922,33.7596874 117.982194,28.476875 L122.524355,33.9273958 C119.291654,36.7650208 115.132369,38.3410599 110.818583,38.3632813 C100.725362,38.3632813 92.5021941,29.7514583 92.5021941,19.1858333 C92.5021941,8.62020834 100.725362,-8.85647997e-16 110.813939,-8.85647997e-16 C114.944941,0.0218020833 118.940016,1.46493229 122.119106,4.08369792 L117.576946,9.5635677 Z" id="Fill-8"></path>
                <polygon id="Fill-10" points="137.421332 20.6576835 134.698569 23.5632305 134.698569 37.5622643 127.63247 37.5622643 127.63247 0.58299609 134.694348 0.58299609 134.694348 12.5196367 145.036627 0.578803386 154.572631 0.578803386 142.212974 15.0562252 154.876991 37.5622643 146.434313 37.5622643"></polygon>
                <path d="M168.600309,15.2153386 C170.91318,15.1423854 172.736377,13.2326068 172.686564,10.9345833 C172.728778,8.66129686 170.90727,6.78422135 168.618039,6.74229428 C168.612129,6.74229428 168.606219,6.74229428 168.600309,6.74187499 L165.522953,6.74187499 L165.522953,15.2153386 L168.600309,15.2153386 Z M170.837619,31.2780235 C173.266576,31.2453203 175.209659,29.2638464 175.177154,26.8509427 L175.177154,26.8417187 C175.21979,24.4137214 173.281773,22.4066719 170.837619,22.3471354 L159.266929,22.3471354 L159.266929,0.582786456 L168.904245,0.582786456 C174.606852,0.582786456 179.246525,5.44213542 179.246525,11.4125521 C179.262987,13.5759896 178.631053,15.6949844 177.431349,17.5003646 C180.107255,19.6776381 181.646778,22.940823 181.618916,26.3763281 C181.618916,32.6108854 176.823053,37.5750521 170.922045,37.5750521 L168.389241,37.5750521 L168.389241,31.2859896 L170.837619,31.2780235 Z" id="Fill-12"></path>
                <polygon id="Fill-14" points="187.777766 37.5625578 194.840065 37.5625578 194.840065 0.582870316 187.777766 0.582870316"></polygon>
                <polygon id="Fill-16" points="226.056695 0.582828386 226.056695 7.97876591 216.267833 7.97876591 216.267833 37.6254065 209.20089 37.6254065 209.20089 7.97876591 199.365594 7.97876591 199.365594 0.582828386"></polygon>
                <polygon id="Fill-17" points="159.262623 37.5751359 165.822583 37.5751359 165.822583 31.2860735 159.262623 31.2860735"></polygon>
            </g>
            <g id="Fill-19-Clipped">
                <mask id="mask-2" fill="white">
                    <use xlink:href="#path-1"></use>
                </mask>
                <g id="path-1"></g>
                <polygon id="Fill-19" fill="#FFFFFF" fill-rule="nonzero" mask="url(#mask-2)" points="-0.938268759 42.9333333 51.6047817 42.9333333 51.6047817 -0.933333333 -0.938268759 -0.933333333"></polygon>
            </g>
        </g>
    </g>
</svg>