<svg width="285" height="42" viewBox="0 0 285 42" xmlns="http://www.w3.org/2000/svg" xmlns:xlink="http://www.w3.org/1999/xlink"><defs><path d="M23.114.642L2.471 12.532C.816 13.475-.143 15.316.017 17.24v7.926c-.14 1.948.858 3.797 2.548 4.724l20.643 11.492a4.794 4.794 0 004.708 0L48.17 29.89c1.664-.945 2.634-2.791 2.48-4.724V17.24c.145-1.915-.811-3.742-2.453-4.689L27.944.662a4.8 4.8 0 00-4.83-.02zM24.75 30.12L4.107 18.23a1.6 1.6 0 010-2.774L24.75 3.567a1.536 1.536 0 011.558 0L46.56 15.484c.745.438 1 1.407.57 2.166a1.543 1.543 0 01-2.128.58L25.521 6.781 8.05 16.843l18.235 10.502a1.606 1.606 0 01.596 2.168c-.287.52-.818.812-1.364.812a1.54 1.54 0 01-.766-.206zm.031 8.323L4.138 26.949a1.602 1.602 0 01-.654-2.284c.46-.739 1.423-.959 2.15-.49L25.52 35.244l19.502-11.07a1.546 1.546 0 012.122.615c.42.767.15 1.733-.603 2.16L26.288 38.442a1.534 1.534 0 01-1.507 0z" id="a"/></defs><g fill="none" fill-rule="evenodd"><g fill="#FFF" fill-rule="nonzero"><path d="M71.223 23.998a16.486 16.486 0 01-5.348-2.327 10.27 10.27 0 01-4.526-8.343 10.186 10.186 0 012.575-7.547 11.98 11.98 0 018.224-3.643c5.145 0 8.02 1.953 10.595 3.697l1.161.793-3.685 6.289-1.267-.839c-2.27-1.53-3.735-2.515-6.813-2.515-.456 0-2.22.369-3.128 1.375-.304.319-.654.897-.603 2.096.05 1.904 1.312 2.96 4.542 3.803.422.105.705.21 1.009.319 3.377 1.216 6.002 2.85 7.822 4.914a10.979 10.979 0 012.786 7.212 11.574 11.574 0 01-2.824 7.345 10.538 10.538 0 01-8.152 3.803 20.06 20.06 0 01-6.205-.898 19.463 19.463 0 01-8.443-5.601l5.146-5.073a11.92 11.92 0 009.502 4.176c2.926 0 3.884-2.801 3.884-3.752 0-2.009-2.17-3.858-5.855-5.179l-.152-.054-.245-.05zM115.007 2.657v7.396h-9.79V39.7h-7.066V10.053h-9.836V2.657zM136.046 25.445l-3.685-8.26-3.985 8.26h7.67zm3.33 7.379h-14.635l-3.33 6.876h-7.92l18.013-37.042h2.068L150.276 39.7h-7.822l-3.077-6.876zM176.52 11.638c-6.86-4.641-17.206-.318-17.206 9.614 0 10.406 10.95 14.582 17.611 9.3l4.543 5.45a17.886 17.886 0 01-11.706 4.436c-10.093 0-18.317-8.612-18.317-19.178 0-10.565 8.224-19.185 18.312-19.185a17.931 17.931 0 0111.305 4.083l-4.542 5.48zM196.365 22.732l-2.723 2.906v13.999h-7.066V2.657h7.062v11.937l10.342-11.94h9.536l-12.36 14.477 12.664 22.506h-8.442zM227.544 17.29c2.312-.073 4.136-1.983 4.086-4.28.042-2.274-1.78-4.151-4.069-4.193H224.466v8.473h3.078zm2.237 16.063c2.429-.033 4.372-2.015 4.34-4.427v-.01c.042-2.428-1.896-4.435-4.34-4.494h-11.57V2.657h9.637c5.702 0 10.342 4.86 10.342 10.83a10.849 10.849 0 01-1.815 6.088 11.325 11.325 0 014.187 8.876c0 6.235-4.796 11.199-10.697 11.199h-2.532v-6.29l2.448-.007zM246.721 39.637h7.062V2.657h-7.062zM285 2.657v7.396h-9.789V39.7h-7.067V10.053h-9.835V2.657z"/><path d="M218.206 39.65h6.56v-6.29h-6.56z"/></g><mask id="b" fill="#fff"><use xlink:href="#a"/></mask><path fill="#FFF" fill-rule="nonzero" mask="url(#b)" d="M-.938 42.933h52.543V-.933H-.938z"/></g></svg>