<svg width="187" height="29" xmlns="http://www.w3.org/2000/svg" xmlns:xlink="http://www.w3.org/1999/xlink"><defs><path d="M15.977.575l-14.16 8.13a3.376 3.376 0 00-1.683 3.22v5.42a3.4 3.4 0 001.747 3.231l14.16 7.86a3.298 3.298 0 003.23 0l13.894-7.86a3.4 3.4 0 001.701-3.23v-5.42a3.4 3.4 0 00-1.683-3.207L19.29.589a3.3 3.3 0 00-3.313-.014zM17.1 20.734L2.94 12.603a1.092 1.092 0 010-1.897l14.16-8.131c.331-.194.738-.194 1.069 0l13.893 8.15c.511.3.686.962.391 1.48a1.06 1.06 0 01-1.46.398l-13.364-7.83-11.985 6.881 12.509 7.182c.516.295.7.96.409 1.483a1.06 1.06 0 01-1.461.415zm.022 5.691l-14.16-7.86a1.094 1.094 0 01-.449-1.562 1.06 1.06 0 011.474-.335l13.642 7.57 13.378-7.57a1.062 1.062 0 011.456.42 1.094 1.094 0 01-.414 1.477l-13.893 7.86a1.055 1.055 0 01-1.034 0z" id="a"/></defs><g fill="none" fill-rule="evenodd"><path d="M49.686 16.427a10.563 10.563 0 01-3.43-1.495 6.606 6.606 0 01-2.903-5.364 6.557 6.557 0 011.651-4.852 7.677 7.677 0 015.275-2.342c3.3 0 5.145 1.256 6.797 2.377l.744.51-2.364 4.043-.812-.54c-1.457-.983-2.396-1.616-4.37-1.616-.293 0-1.425.237-2.007.884-.195.204-.42.576-.387 1.347.032 1.224.842 1.903 2.914 2.445.27.067.452.135.647.205 2.166.781 3.85 1.833 5.017 3.159a7.067 7.067 0 011.787 4.636 7.45 7.45 0 01-1.811 4.722 6.754 6.754 0 01-5.229 2.444 12.842 12.842 0 01-3.98-.576 12.483 12.483 0 01-5.416-3.601l3.3-3.262a7.639 7.639 0 006.096 2.685c1.877 0 2.491-1.8 2.491-2.412 0-1.291-1.392-2.48-3.755-3.33l-.098-.034-.157-.033zM77.771 2.708v4.755h-6.28V26.52H66.96V7.463h-6.31V2.708zM91.267 17.357l-2.364-5.31-2.556 5.31h4.92zm2.136 4.744h-9.388l-2.136 4.42h-5.08L88.353 2.708h1.327l10.715 23.813h-5.018l-1.974-4.42zM117.229 8.482c-4.4-2.984-11.037-.205-11.037 6.18 0 6.69 7.024 9.374 11.297 5.978l2.913 3.504a11.458 11.458 0 01-7.508 2.852c-6.475 0-11.75-5.536-11.75-12.329 0-6.792 5.275-12.333 11.747-12.333 2.65.014 5.212.941 7.251 2.625l-2.913 3.523zM129.958 15.614l-1.747 1.867v9h-4.532V2.708h4.53v7.674l6.634-7.676h6.117l-7.928 9.307 8.123 14.468h-5.416zM149.958 12.115a2.701 2.701 0 002.62-2.752 2.652 2.652 0 00-2.609-2.695H147.984v5.447h1.974zm1.435 10.326a2.815 2.815 0 002.783-2.846v-.006a2.847 2.847 0 00-2.783-2.89h-7.422V2.71h6.182c3.658 0 6.634 3.123 6.634 6.961a6.985 6.985 0 01-1.165 3.914 7.287 7.287 0 012.686 5.706c0 4.008-3.076 7.2-6.861 7.2h-1.625v-4.044l1.57-.005zM162.26 26.481h4.53V2.708h-4.53zM186.813 2.708v4.755h-6.279V26.52h-4.533V7.463h-6.309V2.708z" fill="#272B34"/><path fill="#207BEA" d="M143.968 26.49h4.208v-4.044h-4.208z"/><g><mask id="b" fill="#fff"><use xlink:href="#a"/></mask><path fill="#207BEA" mask="url(#b)" d="M-.534 29.542h36.068V-.542H-.534z"/></g></g></svg>